<?xml version="1.0" encoding="utf-8"?>
<!-- Generator: Adobe Illustrator 24.0.0, SVG Export Plug-In . SVG Version: 6.00 Build 0)  -->
<svg version="1.1" id="Layer_1" xmlns="http://www.w3.org/2000/svg" xmlns:xlink="http://www.w3.org/1999/xlink" x="0px" y="0px"
	 viewBox="0 0 166 32" style="enable-background:new 0 0 166 32;" xml:space="preserve">
<style type="text/css">
	.st0{fill:#EFB970;}
	.st1{fill:#EDEDED;}
</style>
<g>
	<g>
		<polygon class="st0" points="63.11,6.5 57.49,3.09 57.49,4.76 61.64,7.33 61.64,30.42 55.92,30.42 55.92,0 49.04,4.71 
			49.04,30.42 47.56,30.42 47.52,10.51 42.02,13.91 42.02,30.42 39.85,30.42 39.85,31.89 65.28,31.89 65.28,30.42 63.11,30.42 		"/>
		<g>
			<path class="st1" d="M80.29,12.87l-2.27-0.57c-1.24-0.31-1.86-0.84-1.86-1.6c0-0.48,0.2-0.88,0.59-1.19
				c0.39-0.31,0.97-0.47,1.72-0.47c1.29,0,2.11,0.51,2.46,1.52l2.29-0.57c-0.25-0.92-0.82-1.63-1.73-2.13
				c-0.9-0.5-1.93-0.75-3.08-0.75c-1.38,0-2.52,0.36-3.4,1.08c-0.89,0.72-1.33,1.68-1.33,2.87c0,0.6,0.13,1.16,0.38,1.69
				c0.25,0.53,0.59,0.94,1,1.23c0.42,0.29,1.06,0.55,1.94,0.78l2.55,0.67c0.68,0.18,1.13,0.42,1.34,0.73
				c0.21,0.31,0.31,0.65,0.31,1.01c0,0.5-0.23,0.92-0.69,1.26c-0.46,0.34-1.12,0.51-1.97,0.51c-1.87,0-2.95-0.66-3.23-1.99
				l-2.34,0.5c0.33,1.17,0.99,2.04,1.98,2.59c0.99,0.55,2.15,0.83,3.48,0.83c1.57,0,2.85-0.38,3.84-1.13
				c0.99-0.75,1.48-1.78,1.48-3.1c0-0.81-0.23-1.56-0.7-2.23C82.59,13.72,81.66,13.21,80.29,12.87z"/>
		</g>
		<g>
			<polygon class="st1" points="93.32,12.79 88.23,12.79 88.23,7.3 85.82,7.3 85.82,20.65 88.23,20.65 88.23,14.85 93.32,14.85 
				93.32,20.65 95.73,20.65 95.73,7.3 93.32,7.3 			"/>
		</g>
		<g>
			<rect x="98.66" y="7.3" class="st1" width="2.41" height="13.35"/>
		</g>
		<g>
			<path class="st1" d="M114.09,7.3h-1.9v9.3c-0.53-0.89-0.81-1.37-0.85-1.44l-4.67-7.86H104v13.35h1.94v-9.78
				c0.16,0.28,0.28,0.49,0.36,0.62c0.18,0.29,0.3,0.51,0.38,0.64l5.07,8.53h2.34V7.3z"/>
		</g>
		<g>
			<g>
				<path class="st1" d="M118.72,17.47h5.13l1.07,3.18h2.57L123.02,7.3h-2.96l-4.43,13.35h2.05L118.72,17.47z M121.27,9.59
					l1.95,5.96h-3.89L121.27,9.59z"/>
			</g>
		</g>
		<g>
			<polygon class="st1" points="138.41,7.3 135.66,15.9 132.86,7.3 129.1,7.3 129.1,20.65 131.07,20.65 131.07,8.96 134.78,20.65 
				136.04,20.65 139.74,8.96 139.74,20.65 142.19,20.65 142.19,7.3 			"/>
		</g>
		<g>
			<polygon class="st1" points="91.18,27.78 88.51,27.78 88.51,24.91 87.26,24.91 87.26,31.89 88.51,31.89 88.51,28.86 91.18,28.86 
				91.18,31.89 92.44,31.89 92.44,24.91 91.18,24.91 			"/>
		</g>
		<g>
			<g>
				<path class="st1" d="M99.21,24.81c-0.9,0-1.62,0.34-2.17,1.03c-0.55,0.68-0.82,1.53-0.82,2.55c0,1.02,0.26,1.88,0.77,2.58
					c0.52,0.7,1.24,1.04,2.17,1.04c0.9,0,1.63-0.33,2.18-0.99c0.55-0.66,0.82-1.53,0.82-2.61c0-1.03-0.26-1.88-0.79-2.56
					C100.84,25.15,100.12,24.81,99.21,24.81z M100.32,30.43c-0.31,0.37-0.7,0.56-1.15,0.56c-0.51,0-0.9-0.22-1.18-0.65
					c-0.27-0.43-0.41-1.07-0.41-1.91c0-1.73,0.54-2.6,1.62-2.6c0.55,0,0.95,0.23,1.21,0.68c0.26,0.46,0.39,1.08,0.39,1.88
					C100.79,29.37,100.63,30.05,100.32,30.43z"/>
			</g>
		</g>
		<g>
			<path class="st1" d="M109.74,29.4c0,0.59-0.12,0.98-0.35,1.19c-0.24,0.21-0.55,0.31-0.94,0.31c-0.34,0-0.64-0.1-0.9-0.29
				c-0.26-0.19-0.39-0.6-0.39-1.21v-4.48h-1.28v4.58c0,0.55,0.08,1.01,0.24,1.36c0.16,0.36,0.42,0.64,0.79,0.84
				c0.37,0.2,0.83,0.31,1.4,0.31c0.56,0,1.04-0.12,1.43-0.36c0.39-0.24,0.65-0.52,0.79-0.85c0.14-0.33,0.2-0.79,0.2-1.4v-4.48h-1
				V29.4z"/>
		</g>
		<g>
			<path class="st1" d="M117.88,27.82l-1.19-0.3c-0.65-0.16-0.97-0.44-0.97-0.84c0-0.25,0.1-0.46,0.31-0.62s0.51-0.25,0.9-0.25
				c0.67,0,1.1,0.26,1.29,0.79l1.2-0.3c-0.13-0.48-0.43-0.85-0.9-1.11c-0.47-0.26-1.01-0.39-1.61-0.39c-0.72,0-1.32,0.19-1.78,0.56
				c-0.46,0.38-0.7,0.88-0.7,1.5c0,0.31,0.07,0.61,0.2,0.88c0.13,0.28,0.31,0.49,0.52,0.64c0.22,0.15,0.56,0.29,1.01,0.41l1.33,0.35
				c0.36,0.09,0.59,0.22,0.7,0.38c0.11,0.16,0.16,0.34,0.16,0.53c0,0.26-0.12,0.48-0.36,0.66c-0.24,0.18-0.58,0.27-1.03,0.27
				c-0.98,0-1.54-0.35-1.69-1.04l-1.22,0.26c0.17,0.61,0.52,1.07,1.04,1.35c0.52,0.29,1.13,0.43,1.82,0.43
				c0.82,0,1.49-0.2,2.01-0.59c0.52-0.39,0.77-0.93,0.77-1.62c0-0.43-0.12-0.82-0.37-1.17C119.08,28.27,118.59,28,117.88,27.82z"/>
		</g>
		<g>
			<polygon class="st1" points="124.64,28.86 127.24,28.86 127.24,27.84 124.64,27.84 124.64,25.95 127.88,25.95 127.88,24.91 
				123.39,24.91 123.39,31.89 127.92,31.89 127.92,30.81 124.64,30.81 			"/>
		</g>
	</g>
</g>
</svg>
